# xmcd CD database file
#
# Track frame offsets:
#	150
#	13499
#	29429
#	43218
#	62177
#	82431
#	95736
#	116546
#	134019
#	151962
#	174507
#	185603
#	201008
#	221622
#	243041
#	260799
#
# Disc length: 3698 seconds
#
# Revision: 0
# Processed by: cddbd v1.5.2PL0 Copyright (c) Steve Scherf et al.
# Submitted via: CDex 1.79
#
DISCID=f70e7010
DTITLE=Sammy Price - Fire
DYEAR=1975
DGENRE=Jazz
TTITLE0=Back Home Again To France
TTITLE1=Black And Blue Blues
TTITLE2=Walkin' Down Pigalle
TTITLE3=Memories Boogie
TTITLE4=Funky
TTITLE5=Boogie Woogie For Hugues
TTITLE6=West End Boogie
TTITLE7=Whodat Blues
TTITLE8=Riffin' Boogie
TTITLE9=T'ain't Nobody's Business if I do
TTITLE10=Salute To Basie
TTITLE11=Begin the Beguine
TTITLE12=West End Boogie
TTITLE13=Indiana
TTITLE14=Ain't She Sweet
TTITLE15=Trombone with Fire
EXTD=YEAR: 1975
EXTT0=
EXTT1=
EXTT2=
EXTT3=
EXTT4=
EXTT5=
EXTT6=
EXTT7=
EXTT8=
EXTT9=
EXTT10=
EXTT11=
EXTT12=
EXTT13=
EXTT14=
EXTT15=
PLAYORDER=
